<?xml version="1.0" standalone="no"?>
<!DOCTYPE svg PUBLIC "-//W3C//DTD SVG 20010904//EN"
 "http://www.w3.org/TR/2001/REC-SVG-20010904/DTD/svg10.dtd">
<svg version="1.0" xmlns="http://www.w3.org/2000/svg"
 width="512.000000pt" height="512.000000pt" viewBox="0 0 512.000000 512.000000"
 preserveAspectRatio="xMidYMid meet">

<g transform="translate(0.000000,512.000000) scale(0.100000,-0.100000)"
fill="#000000" stroke="none">
<path d="M2844 4960 c-81 -12 -150 -39 -221 -86 l-65 -44 -42 29 c-65 45 -120
70 -188 86 -290 68 -566 -109 -645 -415 -24 -95 -21 -246 7 -335 30 -98 98
-222 174 -318 124 -159 372 -378 581 -513 53 -34 67 -39 120 -39 58 0 63 2
165 72 152 104 261 193 381 313 281 278 387 529 335 790 -43 212 -176 371
-363 435 -78 26 -165 35 -239 25z"/>
<path d="M910 2556 l0 -596 46 0 c221 0 451 186 527 425 30 97 30 243 0 340
-73 232 -277 402 -505 422 l-68 6 0 -597z"/>
<path d="M4210 2556 l0 -596 43 0 c23 0 70 7 102 15 226 59 392 234 441 466
71 332 -182 676 -518 706 l-68 6 0 -597z"/>
<path d="M1938 1726 c-270 -118 -457 -328 -545 -613 l-27 -88 -1 -387 c0 -378
0 -387 21 -415 49 -66 -34 -61 1176 -65 l1096 -3 29 21 c15 11 38 36 51 54 22
33 22 36 22 379 0 391 -9 462 -73 611 -54 123 -94 185 -186 282 -95 101 -219
188 -329 232 l-71 29 -77 -72 c-83 -77 -192 -138 -299 -167 -130 -34 -339 -13
-458 47 -64 33 -159 103 -200 148 -20 23 -40 41 -44 41 -5 0 -43 -15 -85 -34z"/>
</g>
</svg>
